{
  "accessors": [
    {
      "bufferView": 2,
      "componentType": 5126,
      "count": 434,
      "max": [
        0.4416719973087311,
        4.662867069244385,
        0.708443284034729
      ],
      "min": [
        -0.9083591103553772,
        2.9019813537597656,
        -0.4027370512485504
      ],
      "type": "VEC3"
    },
    {
      "bufferView": 2,
      "byteOffset": 5208,
      "componentType": 5126,
      "count": 434,
      "max": [
        0.9984609484672546,
        0.994316816329956,
        0.9971021413803101
      ],
      "min": [
        -0.9975605607032776,
        -0.997826874256134,
        -0.9797994494438171
      ],
      "type": "VEC3"
    },
    {
      "bufferView": 1,
      "componentType": 5126,
      "count": 434,
      "max": [
        0.9960441589355469,
        0.9847506284713745
      ],
      "min": [
        0.015365839004516602,
        0.01562279462814331
      ],
      "type": "VEC2"
    },
    {
      "bufferView": 1,
      "byteOffset": 3472,
      "componentType": 5126,
      "count": 434,
      "max": [
        0.9960441589355469,
        0.9847506284713745
      ],
      "min": [
        0.015365839004516602,
        0.01562279462814331
      ],
      "type": "VEC2"
    },
    {
      "bufferView": 0,
      "componentType": 5125,
      "count": 1893,
      "type": "SCALAR"
    },
    {
      "bufferView": 2,
      "byteOffset": 10416,
      "componentType": 5126,
      "count": 1469,
      "max": [
        1.057525634765625,
        4.010308742523193,
        0.7943063974380493
      ],
      "min": [
        -1.0109364986419678,
        0.0004384467320051044,
        -0.36912739276885986
      ],
      "type": "VEC3"
    },
    {
      "bufferView": 2,
      "byteOffset": 28044,
      "componentType": 5126,
      "count": 1469,
      "max": [
        0.9999865293502808,
        0.9985650777816772,
        0.9991925358772278
      ],
      "min": [
        -0.9993168711662292,
        -0.9999926090240479,
        -0.9996110200881958
      ],
      "type": "VEC3"
    },
    {
      "bufferView": 1,
      "byteOffset": 6944,
      "componentType": 5126,
      "count": 1469,
      "max": [
        0.9983490109443665,
        0.9987481832504272
      ],
      "min": [
        0.0012462625745683908,
        0.0016930997371673584
      ],
      "type": "VEC2"
    },
    {
      "bufferView": 1,
      "byteOffset": 18696,
      "componentType": 5126,
      "count": 1469,
      "max": [
        0.0,
        0.0
      ],
      "min": [
        0.0,
        0.0
      ],
      "type": "VEC2"
    },
    {
      "bufferView": 0,
      "byteOffset": 7572,
      "componentType": 5125,
      "count": 5226,
      "type": "SCALAR"
    },
    {
      "bufferView": 2,
      "byteOffset": 45672,
      "componentType": 5126,
      "count": 448,
      "max": [
        2.0640547275543213,
        3.43111515045166,
        0.121837317943573
      ],
      "min": [
        -0.3724226951599121,
        2.616570472717285,
        -0.121837317943573
      ],
      "type": "VEC3"
    },
    {
      "bufferView": 2,
      "byteOffset": 51048,
      "componentType": 5126,
      "count": 448,
      "max": [
        1.0,
        1.0,
        1.0
      ],
      "min": [
        -1.0,
        -1.0,
        -1.0
      ],
      "type": "VEC3"
    },
    {
      "bufferView": 1,
      "byteOffset": 30448,
      "componentType": 5126,
      "count": 448,
      "max": [
        0.9916065335273743,
        0.9950387477874756
      ],
      "min": [
        0.009659171104431152,
        0.013876187615096569
      ],
      "type": "VEC2"
    },
    {
      "bufferView": 0,
      "byteOffset": 28476,
      "componentType": 5125,
      "count": 822,
      "type": "SCALAR"
    },
    {
      "bufferView": 2,
      "byteOffset": 56424,
      "componentType": 5126,
      "count": 4,
      "max": [
        3.107553482055664,
        6.900154852064553e-16,
        3.107553482055664
      ],
      "min": [
        -3.107553482055664,
        -6.900154852064553e-16,
        -3.107553482055664
      ],
      "type": "VEC3"
    },
    {
      "bufferView": 2,
      "byteOffset": 56472,
      "componentType": 5126,
      "count": 4,
      "max": [
        0.0,
        1.0,
        2.220446049250313e-16
      ],
      "min": [
        0.0,
        1.0,
        2.220446049250313e-16
      ],
      "type": "VEC3"
    },
    {
      "bufferView": 1,
      "byteOffset": 34032,
      "componentType": 5126,
      "count": 4,
      "max": [
        1.0,
        1.0
      ],
      "min": [
        0.0,
        0.0
      ],
      "type": "VEC2"
    },
    {
      "bufferView": 0,
      "byteOffset": 31764,
      "componentType": 5125,
      "count": 6,
      "type": "SCALAR"
    }
  ],
  "asset": {
    "extras": {
      "author": "Yann (https://sketchfab.com/Kokusho)",
      "license": "CC-BY-4.0 (http://creativecommons.org/licenses/by/4.0/)",
      "source": "https://sketchfab.com/3d-models/malik-do-kyanon-9349254602a3458294e752a9ee4e9239",
      "title": "Malik Do Kyanon"
    },
    "generator": "Sketchfab-12.66.0",
    "version": "2.0"
  },
  "bufferViews": [
    {
      "buffer": 0,
      "byteLength": 31788,
      "name": "floatBufferViews",
      "target": 34963
    },
    {
      "buffer": 0,
      "byteLength": 34064,
      "byteOffset": 31788,
      "byteStride": 8,
      "name": "floatBufferViews",
      "target": 34962
    },
    {
      "buffer": 0,
      "byteLength": 56520,
      "byteOffset": 65852,
      "byteStride": 12,
      "name": "floatBufferViews",
      "target": 34962
    }
  ],
  "buffers": [
    {
      "byteLength": 122372,
      "uri": "scene.bin"
    }
  ],
  "extensionsUsed": [
    "KHR_materials_unlit"
  ],
  "images": [
    {
      "uri": "textures/head_mat_baseColor.png"
    },
    {
      "uri": "textures/body_mat_baseColor.png"
    },
    {
      "uri": "textures/rifle_mat_baseColor.png"
    },
    {
      "uri": "textures/lambert5_baseColor.png"
    }
  ],
  "materials": [
    {
      "doubleSided": true,
      "extensions": {
        "KHR_materials_unlit": {}
      },
      "name": "head_mat",
      "pbrMetallicRoughness": {
        "baseColorTexture": {
          "index": 0
        },
        "metallicFactor": 0.0
      }
    },
    {
      "doubleSided": true,
      "extensions": {
        "KHR_materials_unlit": {}
      },
      "name": "body_mat",
      "pbrMetallicRoughness": {
        "baseColorTexture": {
          "index": 1
        },
        "metallicFactor": 0.0
      }
    },
    {
      "doubleSided": true,
      "extensions": {
        "KHR_materials_unlit": {}
      },
      "name": "rifle_mat",
      "pbrMetallicRoughness": {
        "baseColorTexture": {
          "index": 2
        },
        "metallicFactor": 0.0
      }
    },
    {
      "alphaMode": "BLEND",
      "doubleSided": true,
      "extensions": {
        "KHR_materials_unlit": {}
      },
      "name": "lambert5",
      "pbrMetallicRoughness": {
        "baseColorFactor": [
          0.0,
          0.0,
          0.0,
          1.0
        ],
        "baseColorTexture": {
          "index": 3
        },
        "metallicFactor": 0.0
      }
    }
  ],
  "meshes": [
    {
      "name": "MALIK1_head_mat_0",
      "primitives": [
        {
          "attributes": {
            "NORMAL": 1,
            "POSITION": 0,
            "TEXCOORD_0": 2,
            "TEXCOORD_1": 3
          },
          "indices": 4,
          "material": 0,
          "mode": 4
        }
      ]
    },
    {
      "name": "MALIK1_body_mat_0",
      "primitives": [
        {
          "attributes": {
            "NORMAL": 6,
            "POSITION": 5,
            "TEXCOORD_0": 7,
            "TEXCOORD_1": 8
          },
          "indices": 9,
          "material": 1,
          "mode": 4
        }
      ]
    },
    {
      "name": "rifle1_rifle_mat_0",
      "primitives": [
        {
          "attributes": {
            "NORMAL": 11,
            "POSITION": 10,
            "TEXCOORD_0": 12
          },
          "indices": 13,
          "material": 2,
          "mode": 4
        }
      ]
    },
    {
      "name": "ground1_lambert5_0",
      "primitives": [
        {
          "attributes": {
            "NORMAL": 15,
            "POSITION": 14,
            "TEXCOORD_0": 16
          },
          "indices": 17,
          "material": 3,
          "mode": 4
        }
      ]
    }
  ],
  "nodes": [
    {
      "children": [
        1
      ],
      "matrix": [
        1.0,
        0.0,
        0.0,
        0.0,
        0.0,
        2.220446049250313e-16,
        -1.0,
        0.0,
        0.0,
        1.0,
        2.220446049250313e-16,
        0.0,
        0.0,
        0.0,
        0.0,
        1.0
      ],
      "name": "Sketchfab_model"
    },
    {
      "children": [
        2
      ],
      "matrix": [
        1.0,
        0.0,
        0.0,
        0.0,
        0.0,
        0.0,
        1.0,
        0.0,
        0.0,
        -1.0,
        0.0,
        0.0,
        0.0,
        0.0,
        0.0,
        1.0
      ],
      "name": "364a75994b824de5b4088ca7dee3b64b.fbx"
    },
    {
      "children": [
        3,
        6,
        8
      ],
      "name": "RootNode"
    },
    {
      "children": [
        4,
        5
      ],
      "matrix": [
        1.0,
        0.0,
        0.0,
        0.0,
        0.0,
        1.0,
        0.0,
        0.0,
        0.0,
        0.0,
        1.0,
        0.0,
        0.0,
        0.0,
        -9.0,
        1.0
      ],
      "name": "MALIK1"
    },
    {
      "mesh": 0,
      "name": "MALIK1_head_mat_0"
    },
    {
      "mesh": 1,
      "name": "MALIK1_body_mat_0"
    },
    {
      "children": [
        7
      ],
      "matrix": [
        1.0,
        0.0,
        0.0,
        0.0,
        0.0,
        1.0,
        0.0,
        0.0,
        0.0,
        0.0,
        1.0,
        0.0,
        0.0018118595471605659,
        0.0,
        -8.629853248596191,
        1.0
      ],
      "name": "rifle1"
    },
    {
      "mesh": 2,
      "name": "rifle1_rifle_mat_0"
    },
    {
      "children": [
        9
      ],
      "matrix": [
        1.0,
        0.0,
        0.0,
        0.0,
        0.0,
        1.0,
        0.0,
        0.0,
        0.0,
        0.0,
        1.0,
        0.0,
        0.0,
        0.0,
        -9.0,
        1.0
      ],
      "name": "ground1"
    },
    {
      "mesh": 3,
      "name": "ground1_lambert5_0"
    }
  ],
  "samplers": [
    {
      "magFilter": 9729,
      "minFilter": 9987,
      "wrapS": 10497,
      "wrapT": 10497
    }
  ],
  "scene": 0,
  "scenes": [
    {
      "name": "Sketchfab_Scene",
      "nodes": [
        0
      ]
    }
  ],
  "textures": [
    {
      "sampler": 0,
      "source": 0
    },
    {
      "sampler": 0,
      "source": 1
    },
    {
      "sampler": 0,
      "source": 2
    },
    {
      "sampler": 0,
      "source": 3
    }
  ]
}
